<svg height="512pt" viewBox="-160 0 512 512.00014" width="512pt" xmlns="http://www.w3.org/2000/svg"><path d="m96.394531 512c-24.636719 0-44.605469-19.972656-44.605469-44.605469v-123.285156h89.210938v123.285156c0 24.632813-19.972656 44.605469-44.605469 44.605469zm0 0" fill="#cf8671"/><path d="m82.992188 421.710938c-4.265626 0-7.726563-3.460938-7.726563-7.726563v-51.703125c0-4.265625 3.460937-7.726562 7.726563-7.726562 4.265624 0 7.726562 3.460937 7.726562 7.726562v51.703125c0 4.265625-3.460938 7.726563-7.726562 7.726563zm0 0" fill="#be7560"/><path d="m82.992188 448.648438c-4.265626 0-7.726563-3.457032-7.726563-7.722657v-5.121093c0-4.269532 3.460937-7.726563 7.726563-7.726563 4.265624 0 7.726562 3.457031 7.726562 7.726563v5.121093c0 4.265625-3.460938 7.722657-7.726562 7.722657zm0 0" fill="#be7560"/><path d="m140.996094 344.109375v123.289063c0 24.628906-19.960938 44.601562-44.601563 44.601562-4.667969 0-9.171875-.71875-13.402343-2.046875 18.089843-5.6875 31.199218-22.59375 31.199218-42.554687v-123.289063zm0 0" fill="#be7560"/><path d="m88.472656 3.667969c-19.46875 22.796875-68.09375 100.910156-68.09375 312.425781h152.027344c0-211.515625-48.625-289.628906-68.09375-312.425781-4.164062-4.878907-11.675781-4.878907-15.839844 0zm0 0" fill="#dad0cd"/><path d="m172.410156 316.097656h-33.785156c0-183.828125-36.730469-266.894531-59.125-300.457031 3.378906-5.070313 6.433594-9.007813 8.984375-11.996094 4.160156-4.871093 11.667969-4.855469 15.828125.019531 19.46875 22.796876 68.097656 100.910157 68.097656 312.433594zm0 0" fill="#c1bab8"/><path d="m192.789062 344.109375c0 3.75-1.515624 7.152344-3.976562 9.613281-2.464844 2.453125-5.851562 3.976563-9.601562 3.976563h-165.632813c-7.5 0-13.578125-6.089844-13.578125-13.589844 0-3.75 1.515625-7.148437 3.976562-9.609375 2.460938-2.453125 5.851563-3.976562 9.601563-3.976562h165.632813c7.5 0 13.578124 6.089843 13.578124 13.585937zm0 0" fill="#00df97"/><g fill="#78ffce"><path d="m44.402344 357.699219h-15.660156l-10.074219-23.117188c-.578125-1.328125-.753907-2.730469-.578125-4.058593h15.660156l10.074219 23.117187c.578125 1.328125.75 2.71875.578125 4.058594zm0 0"/><path d="m76.976562 357.699219h-15.660156l-10.074218-23.117188c-.578126-1.328125-.753907-2.730469-.578126-4.058593h15.660157l10.074219 23.117187c.578124 1.328125.75 2.71875.578124 4.058594zm0 0"/><path d="m109.550781 357.699219h-15.660156l-10.074219-23.117188c-.578125-1.328125-.753906-2.730469-.578125-4.058593h15.660157l10.074218 23.117187c.578125 1.328125.753906 2.71875.578125 4.058594zm0 0"/><path d="m142.125 357.699219h-15.660156l-10.074219-23.117188c-.578125-1.328125-.753906-2.71875-.578125-4.058593h15.660156l10.074219 23.117187c.578125 1.328125.753906 2.730469.578125 4.058594zm0 0"/><path d="m174.699219 357.699219h-15.648438l-10.085937-23.117188c-.578125-1.328125-.75-2.71875-.578125-4.058593h15.660156l10.085937 23.117187c.574219 1.328125.75 2.730469.566407 4.058594zm0 0"/><path d="m192.789062 317.902344c0 7.511718-6.078124 13.589844-13.578124 13.589844h-165.632813c-3.75 0-7.140625-1.523438-9.601563-3.976563-2.460937-2.460937-3.976562-5.851563-3.976562-9.613281 0-7.5 6.078125-13.578125 13.578125-13.578125h165.632813c3.75 0 7.140624 1.515625 9.601562 3.980469 2.460938 2.460937 3.976562 5.847656 3.976562 9.597656zm0 0"/></g><path d="m174.132812 308.375-10.078124 23.117188h-15.667969c-.175781-1.339844 0-2.730469.578125-4.058594l10.074218-23.109375h15.660157c.183593 1.339843.007812 2.730469-.566407 4.050781zm0 0" fill="#00df97"/><path d="m141.546875 308.375-10.066406 23.117188h-15.667969c-.175781-1.339844 0-2.730469.578125-4.058594l10.0625-23.109375h15.671875c.175781 1.332031 0 2.730469-.578125 4.050781zm0 0" fill="#00df97"/><path d="m108.972656 308.375-10.066406 23.117188h-15.667969c-.175781-1.328126 0-2.730469.578125-4.058594l10.0625-23.109375h15.671875c.175781 1.332031 0 2.730469-.578125 4.050781zm0 0" fill="#00df97"/><path d="m76.398438 308.375-10.066407 23.117188h-15.667969c-.175781-1.328126 0-2.730469.578126-4.058594l10.0625-23.109375h15.671874c.171876 1.332031 0 2.730469-.578124 4.050781zm0 0" fill="#00df97"/><path d="m43.824219 308.375-10.066407 23.117188h-15.667968c-.183594-1.339844-.011719-2.738282.566406-4.058594l10.074219-23.109375h15.671875c.171875 1.332031 0 2.730469-.578125 4.050781zm0 0" fill="#00df97"/><path d="m51.753906 251.878906c-.015625 0-.027344 0-.039062 0-4.269532-.023437-7.761719-3.496094-7.738282-7.765625.023438-4.253906 3.425782-7.6875 7.675782-7.6875h.039062.101563c4.265625.023438 7.707031 3.5 7.6875 7.765625-.023438 4.253906-3.476563 7.6875-7.726563 7.6875zm0 0" fill="#c1bab8"/><path d="m63.871094 271.789062c-.015625 0-.027344 0-.042969 0-4.265625-.019531-7.757813-3.496093-7.734375-7.765624.019531-4.253907 3.425781-7.6875 7.671875-7.6875h.042969l.097656.003906c4.269531.019531 7.710938 3.496094 7.691406 7.761718-.023437 4.253907-3.480468 7.6875-7.726562 7.6875zm0 0" fill="#c1bab8"/><path d="m96.394531 199.8125c0-15.375-8.523437-27.839844-19.039062-27.839844-10.511719 0-19.035157 12.464844-19.035157 27.839844 0 15.378906 8.523438 27.84375 19.035157 27.84375 10.515625 0 19.039062-12.464844 19.039062-27.84375zm0 0" fill="#c1bab8"/><path d="m96.394531 199.8125c0 15.382812-8.519531 27.84375-19.039062 27.84375-2.765625 0-5.398438-.863281-7.765625-2.417969 6.648437-4.335937 11.277344-14.089843 11.277344-25.425781s-4.628907-21.085938-11.277344-25.425781c2.367187-1.550781 5-2.414063 7.765625-2.414063 10.519531-.003906 19.039062 12.46875 19.039062 27.839844zm0 0" fill="#b7a6a3"/></svg>