<svg id="Capa_1" enable-background="new 0 0 512 512" height="512" viewBox="0 0 512 512" width="512" xmlns="http://www.w3.org/2000/svg"><g><ellipse cx="383.165" cy="128.835" fill="#ffd064" rx="105.928" ry="66.811" transform="matrix(.707 -.707 .707 .707 21.126 308.673)"/><path d="m459.373 205.044c57.365-57.365 69.748-137.988 27.66-180.077-42.089-42.089-122.712-29.705-180.077 27.66-31.04 31.04-48.906 68.887-52.1 103.755-3.159 34.485-17.991 66.852-42.909 90.899l-199.037 192.075c-17.001 16.406-17.242 43.565-.536 60.271 16.706 16.706 43.865 16.464 60.271-.536l192.074-199.037c24.047-24.918 56.414-39.75 90.899-42.909 34.868-3.195 72.715-21.061 103.755-52.101z" fill="#eaaa89"/><path d="m487.033 24.967c-11.901-11.901-26.883-19.446-43.548-22.851.793.731 1.573 1.48 2.341 2.247 42.089 42.089 29.705 122.712-27.66 180.077-31.04 31.04-68.887 48.906-103.755 52.1-34.485 3.159-66.852 17.991-90.899 42.909l-192.075 199.038c-7.105 7.363-16.227 11.581-25.643 12.642 1.782 3.033 3.975 5.893 6.58 8.498 16.706 16.706 43.865 16.464 60.271-.536l192.074-199.037c24.047-24.918 56.414-39.75 90.899-42.909 34.868-3.194 72.716-21.06 103.755-52.1 57.365-57.366 69.749-137.989 27.66-180.078z" fill="#e4936b"/><path d="m358.272 15.705-8.352 29.378c-3.955 13.908-7.492 28.168-10.515 42.383l-19.683 20.447c3.846-22.212 9.081-45.063 15.334-67.056l4.072-14.325c6.281-4.066 12.682-7.678 19.144-10.827zm-33.038 195.212-14.637-22.457c-1.424 26.059-1.21 53.176.601 79.775 4.931-2.088 9.983-3.906 15.133-5.445-1.056-17.257-1.425-34.697-1.097-51.873zm75.319-15.61c2.346 15.398 5.273 30.913 8.693 46.072 4.741-2.354 9.447-4.959 14.095-7.809-4.101-18.797-7.419-38.075-9.779-56.905zm14.755-195.123c-5.227.287-10.532.911-15.881 1.866-2.665 18.922-4.526 38.139-5.481 56.717l16.446-14.88c1.124-14.49 2.78-29.205 4.916-43.703zm-160.452 156.198c-1.573 17.169-6.039 33.812-13.202 49.165-1.676 26.645-1.277 46.318-1.077 56.255.052 2.573.094 4.61.068 5.526-.002.032-.003.064-.004.096-.213 7.056-1.244 14.351-3.066 21.683-6.234 25.091-21.449 50.691-42.842 72.083s-46.992 36.607-72.082 42.841c-24.487 6.085-47.389 3.186-64.698-8.144l-11.346 10.949c14.485 10.428 32.254 15.765 51.595 15.765 9.103 0 18.555-1.183 28.175-3.573 13.034-3.239 26.152-8.626 38.818-15.845l74.769-77.479c5.607-10.801 9.873-21.865 12.608-32.87 2.048-8.243 3.225-16.48 3.501-24.491.021-.255.029-.513.024-.772.027-1.292-.012-3.231-.07-6.081-.416-20.556-1.695-83.739 17.185-163.752-10.395 19.363-16.598 39.455-18.356 58.644zm-155.07 226.093c24.593-.002 54.271-13.9 78.302-37.932 30.848-30.848 45.14-70.859 34.456-97.841-.198.194-.397.387-.597.579l-11.966 11.548c3.813 21.139-9.183 51.151-32.819 74.787-24.9 24.9-56.919 37.899-77.95 32.107l-12.249 11.82c6.75 3.337 14.491 4.932 22.823 4.932zm-46.502 65.315-16.63 16.63c-3.018 3.017-3.018 7.909 0 10.927 1.509 1.509 3.486 2.263 5.463 2.263s3.955-.755 5.463-2.263l16.63-16.63c3.018-3.017 3.018-7.909 0-10.927-3.017-3.017-7.909-3.017-10.926 0z" fill="#e4936b"/><g fill="#e27d47"><path d="m309.812 237.032c.218 10.418.681 20.849 1.386 31.203 4.931-2.088 9.983-3.906 15.133-5.445-.563-9.202-.93-18.457-1.101-27.695-3.631.635-7.24 1.118-10.819 1.446-1.538.14-3.071.304-4.599.491z"/><path d="m401.219 199.579c2.226 13.991 4.924 28.041 8.028 41.8 4.741-2.354 9.447-4.959 14.095-7.809-3.316-15.2-6.12-30.715-8.32-46.054-4.479 4.29-9.09 8.313-13.803 12.063z"/><path d="m36.654 475.346c1.509 1.509 3.486 2.263 5.463 2.263s3.955-.755 5.463-2.263l16.63-16.63c3.018-3.017 3.018-7.909 0-10.927-.556-.556-1.177-1.01-1.837-1.361l-26.72 27.689c.285.435.619.847 1.001 1.229z"/><path d="m98.204 422.601c9.103 0 18.555-1.183 28.175-3.573 13.034-3.239 26.152-8.626 38.818-15.845l74.769-77.479c5.607-10.801 9.873-21.865 12.608-32.87 2.048-8.243 3.225-16.48 3.501-24.491.021-.255.029-.513.024-.772.027-1.292-.012-3.231-.07-6.081-.039-1.947-.087-4.276-.124-6.966-5.289 2.958-10.392 6.255-15.275 9.884.023 1.321.034 2.343.018 2.92-.002.032-.003.064-.004.096-.213 7.056-1.244 14.351-3.066 21.683-6.234 25.091-21.449 50.691-42.842 72.083s-46.992 36.607-72.082 42.841c-7.644 1.899-15.133 2.924-22.346 3.089l-14.239 14.755c3.962.483 8.012.726 12.135.726z"/><path d="m129.854 376.502c16.55-6.24 33.459-17.184 48.234-31.959 16.182-16.182 27.808-34.886 33.663-52.908z"/></g><path d="m470.455 78.472c-2.629 35.474-20.592 74.272-52.289 105.969-3.842 3.842-7.789 7.482-11.821 10.918 8.978-5.821 17.202-12.42 24.062-19.28 24.786-24.787 45.536-66.249 40.048-97.607z" fill="#c17d4f"/><ellipse cx="383.165" cy="128.835" fill="#e27d47" rx="105.928" ry="66.811" transform="matrix(.707 -.707 .707 .707 21.126 308.673)"/><path d="m470.455 78.472c-2.629 35.474-20.592 74.272-52.289 105.969-3.842 3.842-7.789 7.482-11.821 10.918 8.978-5.821 17.202-12.42 24.062-19.28 24.786-24.787 45.536-66.249 40.048-97.607z" fill="#dd6938"/></g></svg>